ffmpeg started on 2025-06-16 at 16:10:32
Report written to "D:\Convert\FFMetrics\reports\psnr_report-6.txt"
Log level: 32
Command line:
ffmpeg -hide_banner -nostdin -i "G:\\\xc0\xed\xe8\xec\xe5\\[\xd2\xee\xef]\\\xd0\xfb\xf6\xe0\xf0\xfc-\xe2\xe0\xec\xef\xe8\xf0\\\xd2\xc2-1\\[JamClub] Vampire Knight - 02_HEVC.mkv" -i "G:\\\xc0\xed\xe8\xec\xe5\\[\xd2\xee\xef]\\\xd0\xfb\xf6\xe0\xf0\xfc-\xe2\xe0\xec\xef\xe8\xf0\\\xd2\xc2-1\\[JamClub] Vampire Knight - 02.mp4" -lavfi "[0:v]settb=AVTB,setpts=PTS-STARTPTS,format=pix_fmts=yuv420p10,fps=24000/1001,scale=1920:1080:flags=bicubic[main];[1:v]settb=AVTB,setpts=PTS-STARTPTS,format=pix_fmts=yuv420p,fps=24000/1001,scale=1920:1080:flags=bicubic[ref];[main][ref]psnr=eof_action=endall:stats_file='D\\:/Convert/FFMetrics/logs/psnr_logfile-6.txt'" -f null -
Input #0, matroska,webm, from 'G:\Аниме\[Топ]\Рыцарь-вампир\ТВ-1\[JamClub] Vampire Knight - 02_HEVC.mkv':
  Metadata:
    COMPATIBLE_BRANDS: isomiso2avc1mp41
    MAJOR_BRAND     : isom
    MINOR_VERSION   : 512
    ENCODER         : Lavf61.7.100
  Duration: 00:24:21.73, start: -0.001000, bitrate: 1061 kb/s
  Stream #0:0: Video: hevc (Main 10), yuv420p10le(tv, bt709, progressive), 1920x1080 [SAR 1:1 DAR 16:9], 23.98 fps, 23.98 tbr, 1k tbn (default)
      Metadata:
        HANDLER_NAME    : VideoHandler
        VENDOR_ID       : [0][0][0][0]
        ENCODER         : Lavc61.19.100 libx265
        BPS             : 863006
        DURATION        : 00:24:21.668708333
        NUMBER_OF_FRAMES: 43673
        NUMBER_OF_BYTES : 157678617
        _STATISTICS_WRITING_APP: mkvpropedit v66.0.0 ('Josie') 64-bit
        _STATISTICS_WRITING_DATE_UTC: 2025-06-16 07:15:41
        _STATISTICS_TAGS: BPS DURATION NUMBER_OF_FRAMES NUMBER_OF_BYTES
  Stream #0:1(eng): Audio: aac (LC), 48000 Hz, stereo, fltp (default)
      Metadata:
        HANDLER_NAME    : SoundHandler
        VENDOR_ID       : [0][0][0][0]
        ENCODER         : Lavc61.19.100 aac
        BPS             : 194487
        DURATION        : 00:24:21.690000000
        NUMBER_OF_FRAMES: 68518
        NUMBER_OF_BYTES : 35535041
        _STATISTICS_WRITING_APP: mkvpropedit v66.0.0 ('Josie') 64-bit
        _STATISTICS_WRITING_DATE_UTC: 2025-06-16 07:15:41
        _STATISTICS_TAGS: BPS DURATION NUMBER_OF_FRAMES NUMBER_OF_BYTES
Input #1, mov,mp4,m4a,3gp,3g2,mj2, from 'G:\Аниме\[Топ]\Рыцарь-вампир\ТВ-1\[JamClub] Vampire Knight - 02.mp4':
  Metadata:
    major_brand     : isom
    minor_version   : 512
    compatible_brands: isomiso2avc1mp41
    encoder         : Lavf60.16.100
  Duration: 00:24:21.71, start: 0.000000, bitrate: 4086 kb/s
  Stream #1:0[0x1](und): Video: h264 (High) (avc1 / 0x31637661), yuv420p(progressive), 1920x1080 [SAR 1:1 DAR 16:9], 3886 kb/s, 29.88 fps, 23.98 tbr, 90k tbn (default)
      Metadata:
        handler_name    : VideoHandler
        vendor_id       : [0][0][0][0]
  Stream #1:1[0x2](eng): Audio: aac (LC) (mp4a / 0x6134706D), 48000 Hz, stereo, fltp, 191 kb/s (default)
      Metadata:
        handler_name    : SoundHandler
        vendor_id       : [0][0][0][0]
Stream mapping:
  Stream #0:0 (hevc) -> settb:default
  Stream #1:0 (h264) -> settb:default
  psnr:default -> Stream #0:0 (wrapped_avframe)
  Stream #0:1 -> #0:1 (aac (native) -> pcm_s16le (native))
Output #0, null, to 'pipe:':
  Metadata:
    COMPATIBLE_BRANDS: isomiso2avc1mp41
    MAJOR_BRAND     : isom
    MINOR_VERSION   : 512
    encoder         : Lavf61.7.100
  Stream #0:0: Video: wrapped_avframe, yuv420p10le(tv, bt709, progressive), 1920x1080 [SAR 1:1 DAR 16:9], q=2-31, 200 kb/s, 23.98 fps, 23.98 tbn
      Metadata:
        encoder         : Lavc61.19.100 wrapped_avframe
  Stream #0:1(eng): Audio: pcm_s16le, 48000 Hz, stereo, s16, 1536 kb/s (default)
      Metadata:
        HANDLER_NAME    : SoundHandler
        VENDOR_ID       : [0][0][0][0]
        _STATISTICS_TAGS: BPS DURATION NUMBER_OF_FRAMES NUMBER_OF_BYTES
        BPS             : 194487
        DURATION        : 00:24:21.690000000
        NUMBER_OF_FRAMES: 68518
        NUMBER_OF_BYTES : 35535041
        _STATISTICS_WRITING_APP: mkvpropedit v66.0.0 ('Josie') 64-bit
        _STATISTICS_WRITING_DATE_UTC: 2025-06-16 07:15:41
        encoder         : Lavc61.19.100 pcm_s16le
frame=  117 fps=0.0 q=-0.0 size=N/A time=00:00:04.87 bitrate=N/A speed=9.66x    frame=  284 fps=275 q=-0.0 size=N/A time=00:00:11.84 bitrate=N/A speed=11.5x    frame=  488 fps=316 q=-0.0 size=N/A time=00:00:20.35 bitrate=N/A speed=13.2x    frame=  726 fps=354 q=-0.0 size=N/A time=00:00:30.28 bitrate=N/A speed=14.8x    frame=  962 fps=373 q=-0.0 size=N/A time=00:00:40.12 bitrate=N/A speed=15.6x    frame= 1175 fps=380 q=-0.0 size=N/A time=00:00:49.00 bitrate=N/A speed=15.9x    frame= 1366 fps=380 q=-0.0 size=N/A time=00:00:56.97 bitrate=N/A speed=15.8x    frame= 1530 fps=371 q=-0.0 size=N/A time=00:01:03.81 bitrate=N/A speed=15.5x    frame= 1692 fps=365 q=-0.0 size=N/A time=00:01:10.57 bitrate=N/A speed=15.2x    frame= 1885 fps=365 q=-0.0 size=N/A time=00:01:18.62 bitrate=N/A speed=15.2x    frame= 2062 fps=364 q=-0.0 size=N/A time=00:01:26.00 bitrate=N/A speed=15.2x    frame= 2266 fps=367 q=-0.0 size=N/A time=00:01:34.51 bitrate=N/A speed=15.3x    frame= 2405 fps=359 q=-0.0 size=N/A time=00:01:40.30 bitrate=N/A speed=  15x    frame= 2601 fps=360 q=-0.0 size=N/A time=00:01:48.48 bitrate=N/A speed=  15x    frame= 2767 fps=358 q=-0.0 size=N/A time=00:01:55.40 bitrate=N/A speed=14.9x    frame= 2966 fps=359 q=-0.0 size=N/A time=00:02:03.70 bitrate=N/A speed=  15x    frame= 3164 fps=361 q=-0.0 size=N/A time=00:02:11.96 bitrate=N/A speed=15.1x    frame= 3369 fps=363 q=-0.0 size=N/A time=00:02:20.51 bitrate=N/A speed=15.2x    frame= 3569 fps=364 q=-0.0 size=N/A time=00:02:28.85 bitrate=N/A speed=15.2x    frame= 3810 fps=369 q=-0.0 size=N/A time=00:02:38.90 bitrate=N/A speed=15.4x    frame= 4052 fps=374 q=-0.0 size=N/A time=00:02:49.00 bitrate=N/A speed=15.6x    frame= 4279 fps=377 q=-0.0 size=N/A time=00:02:58.46 bitrate=N/A speed=15.7x    frame= 4525 fps=382 q=-0.0 size=N/A time=00:03:08.73 bitrate=N/A speed=15.9x    frame= 4766 fps=385 q=-0.0 size=N/A time=00:03:18.78 bitrate=N/A speed=16.1x    frame= 4991 fps=387 q=-0.0 size=N/A time=00:03:28.16 bitrate=N/A speed=16.2x    frame= 5225 fps=390 q=-0.0 size=N/A time=00:03:37.92 bitrate=N/A speed=16.3x    frame= 5479 fps=394 q=-0.0 size=N/A time=00:03:48.51 bitrate=N/A speed=16.4x    frame= 5716 fps=396 q=-0.0 size=N/A time=00:03:58.40 bitrate=N/A speed=16.5x    frame= 5933 fps=397 q=-0.0 size=N/A time=00:04:07.45 bitrate=N/A speed=16.6x    frame= 6147 fps=398 q=-0.0 size=N/A time=00:04:16.38 bitrate=N/A speed=16.6x    frame= 6388 fps=400 q=-0.0 size=N/A time=00:04:26.43 bitrate=N/A speed=16.7x    frame= 6628 fps=402 q=-0.0 size=N/A time=00:04:36.44 bitrate=N/A speed=16.8x    frame= 6853 fps=403 q=-0.0 size=N/A time=00:04:45.82 bitrate=N/A speed=16.8x    frame= 7069 fps=403 q=-0.0 size=N/A time=00:04:54.83 bitrate=N/A speed=16.8x    frame= 7277 fps=403 q=-0.0 size=N/A time=00:05:03.51 bitrate=N/A speed=16.8x    frame= 7520 fps=405 q=-0.0 size=N/A time=00:05:13.64 bitrate=N/A speed=16.9x    frame= 7753 fps=406 q=-0.0 size=N/A time=00:05:23.36 bitrate=N/A speed=  17x    frame= 7966 fps=407 q=-0.0 size=N/A time=00:05:32.24 bitrate=N/A speed=  17x    frame= 8157 fps=406 q=-0.0 size=N/A time=00:05:40.21 bitrate=N/A speed=16.9x    frame= 8385 fps=406 q=-0.0 size=N/A time=00:05:49.72 bitrate=N/A speed=16.9x    frame= 8589 fps=406 q=-0.0 size=N/A time=00:05:58.23 bitrate=N/A speed=16.9x    frame= 8841 fps=408 q=-0.0 size=N/A time=00:06:08.74 bitrate=N/A speed=  17x    frame= 9087 fps=410 q=-0.0 size=N/A time=00:06:19.00 bitrate=N/A speed=17.1x    frame= 9332 fps=411 q=-0.0 size=N/A time=00:06:29.22 bitrate=N/A speed=17.1x    frame= 9568 fps=412 q=-0.0 size=N/A time=00:06:39.06 bitrate=N/A speed=17.2x    frame= 9804 fps=413 q=-0.0 size=N/A time=00:06:48.90 bitrate=N/A speed=17.2x    frame=10029 fps=414 q=-0.0 size=N/A time=00:06:58.29 bitrate=N/A speed=17.3x    frame=10259 fps=414 q=-0.0 size=N/A time=00:07:07.88 bitrate=N/A speed=17.3x    frame=10500 fps=415 q=-0.0 size=N/A time=00:07:17.93 bitrate=N/A speed=17.3x    frame=10694 fps=415 q=-0.0 size=N/A time=00:07:26.02 bitrate=N/A speed=17.3x    frame=10906 fps=414 q=-0.0 size=N/A time=00:07:34.87 bitrate=N/A speed=17.3x    frame=11149 fps=416 q=-0.0 size=N/A time=00:07:45.00 bitrate=N/A speed=17.3x    frame=11382 fps=416 q=-0.0 size=N/A time=00:07:54.72 bitrate=N/A speed=17.4x    frame=11605 fps=416 q=-0.0 size=N/A time=00:08:04.02 bitrate=N/A speed=17.4x    frame=11827 fps=417 q=-0.0 size=N/A time=00:08:13.28 bitrate=N/A speed=17.4x    frame=12048 fps=417 q=-0.0 size=N/A time=00:08:22.50 bitrate=N/A speed=17.4x    frame=12281 fps=418 q=-0.0 size=N/A time=00:08:32.22 bitrate=N/A speed=17.4x    frame=12533 fps=419 q=-0.0 size=N/A time=00:08:42.73 bitrate=N/A speed=17.5x    frame=12744 fps=419 q=-0.0 size=N/A time=00:08:51.53 bitrate=N/A speed=17.5x    frame=12957 fps=419 q=-0.0 size=N/A time=00:09:00.41 bitrate=N/A speed=17.5x    frame=13169 fps=419 q=-0.0 size=N/A time=00:09:09.25 bitrate=N/A speed=17.5x    frame=13375 fps=418 q=-0.0 size=N/A time=00:09:17.84 bitrate=N/A speed=17.4x    frame=13587 fps=418 q=-0.0 size=N/A time=00:09:26.69 bitrate=N/A speed=17.4x    frame=13826 fps=419 q=-0.0 size=N/A time=00:09:36.65 bitrate=N/A speed=17.5x    frame=14043 fps=419 q=-0.0 size=N/A time=00:09:45.71 bitrate=N/A speed=17.5x    frame=14252 fps=419 q=-0.0 size=N/A time=00:09:54.42 bitrate=N/A speed=17.5x    frame=14455 fps=418 q=-0.0 size=N/A time=00:10:02.89 bitrate=N/A speed=17.4x    frame=14664 fps=418 q=-0.0 size=N/A time=00:10:11.61 bitrate=N/A speed=17.4x    frame=14886 fps=418 q=-0.0 size=N/A time=00:10:20.87 bitrate=N/A speed=17.4x    frame=15120 fps=419 q=-0.0 size=N/A time=00:10:30.63 bitrate=N/A speed=17.5x    frame=15368 fps=420 q=-0.0 size=N/A time=00:10:40.97 bitrate=N/A speed=17.5x    frame=15599 fps=420 q=-0.0 size=N/A time=00:10:50.60 bitrate=N/A speed=17.5x    frame=15829 fps=420 q=-0.0 size=N/A time=00:11:00.20 bitrate=N/A speed=17.5x    frame=16065 fps=421 q=-0.0 size=N/A time=00:11:10.04 bitrate=N/A speed=17.6x    frame=16291 fps=421 q=-0.0 size=N/A time=00:11:19.47 bitrate=N/A speed=17.6x    frame=16510 fps=421 q=-0.0 size=N/A time=00:11:28.60 bitrate=N/A speed=17.6x    frame=16755 fps=422 q=-0.0 size=N/A time=00:11:38.82 bitrate=N/A speed=17.6x    frame=16988 fps=422 q=-0.0 size=N/A time=00:11:48.54 bitrate=N/A speed=17.6x    frame=17198 fps=422 q=-0.0 size=N/A time=00:11:57.29 bitrate=N/A speed=17.6x    frame=17451 fps=423 q=-0.0 size=N/A time=00:12:07.85 bitrate=N/A speed=17.6x    frame=17700 fps=424 q=-0.0 size=N/A time=00:12:18.23 bitrate=N/A speed=17.7x    frame=17929 fps=424 q=-0.0 size=N/A time=00:12:27.78 bitrate=N/A speed=17.7x    frame=18152 fps=424 q=-0.0 size=N/A time=00:12:37.08 bitrate=N/A speed=17.7x    frame=18381 fps=424 q=-0.0 size=N/A time=00:12:46.64 bitrate=N/A speed=17.7x    frame=18576 fps=424 q=-0.0 size=N/A time=00:12:54.77 bitrate=N/A speed=17.7x    frame=18803 fps=424 q=-0.0 size=N/A time=00:13:04.24 bitrate=N/A speed=17.7x    frame=19033 fps=424 q=-0.0 size=N/A time=00:13:13.83 bitrate=N/A speed=17.7x    frame=19228 fps=424 q=-0.0 size=N/A time=00:13:21.96 bitrate=N/A speed=17.7x    frame=19474 fps=424 q=-0.0 size=N/A time=00:13:32.22 bitrate=N/A speed=17.7x    frame=19707 fps=425 q=-0.0 size=N/A time=00:13:41.94 bitrate=N/A speed=17.7x    frame=19950 fps=425 q=-0.0 size=N/A time=00:13:52.08 bitrate=N/A speed=17.7x    frame=20181 fps=425 q=-0.0 size=N/A time=00:14:01.71 bitrate=N/A speed=17.7x    frame=20397 fps=425 q=-0.0 size=N/A time=00:14:10.72 bitrate=N/A speed=17.7x    frame=20618 fps=425 q=-0.0 size=N/A time=00:14:19.94 bitrate=N/A speed=17.7x    frame=20819 fps=425 q=-0.0 size=N/A time=00:14:28.32 bitrate=N/A speed=17.7x    frame=21027 fps=425 q=-0.0 size=N/A time=00:14:37.00 bitrate=N/A speed=17.7x    frame=21239 fps=425 q=-0.0 size=N/A time=00:14:45.84 bitrate=N/A speed=17.7x    frame=21467 fps=425 q=-0.0 size=N/A time=00:14:55.35 bitrate=N/A speed=17.7x    frame=21704 fps=425 q=-0.0 size=N/A time=00:15:05.23 bitrate=N/A speed=17.7x    frame=21916 fps=425 q=-0.0 size=N/A time=00:15:14.07 bitrate=N/A speed=17.7x    frame=22142 fps=425 q=-0.0 size=N/A time=00:15:23.50 bitrate=N/A speed=17.7x    frame=22373 fps=425 q=-0.0 size=N/A time=00:15:33.14 bitrate=N/A speed=17.7x    frame=22570 fps=425 q=-0.0 size=N/A time=00:15:41.35 bitrate=N/A speed=17.7x    frame=22769 fps=425 q=-0.0 size=N/A time=00:15:49.65 bitrate=N/A speed=17.7x    frame=22998 fps=425 q=-0.0 size=N/A time=00:15:59.20 bitrate=N/A speed=17.7x    frame=23229 fps=425 q=-0.0 size=N/A time=00:16:08.84 bitrate=N/A speed=17.7x    frame=23451 fps=425 q=-0.0 size=N/A time=00:16:18.10 bitrate=N/A speed=17.7x    frame=23685 fps=425 q=-0.0 size=N/A time=00:16:27.86 bitrate=N/A speed=17.7x    frame=23903 fps=425 q=-0.0 size=N/A time=00:16:36.95 bitrate=N/A speed=17.7x    frame=24111 fps=425 q=-0.0 size=N/A time=00:16:45.62 bitrate=N/A speed=17.7x    frame=24290 fps=424 q=-0.0 size=N/A time=00:16:53.09 bitrate=N/A speed=17.7x    frame=24508 fps=424 q=-0.0 size=N/A time=00:17:02.18 bitrate=N/A speed=17.7x    frame=24718 fps=424 q=-0.0 size=N/A time=00:17:10.94 bitrate=N/A speed=17.7x    frame=24929 fps=424 q=-0.0 size=N/A time=00:17:19.74 bitrate=N/A speed=17.7x    frame=25144 fps=424 q=-0.0 size=N/A time=00:17:28.71 bitrate=N/A speed=17.7x    frame=25356 fps=424 q=-0.0 size=N/A time=00:17:37.55 bitrate=N/A speed=17.7x    frame=25570 fps=424 q=-0.0 size=N/A time=00:17:46.48 bitrate=N/A speed=17.7x    frame=25782 fps=424 q=-0.0 size=N/A time=00:17:55.32 bitrate=N/A speed=17.7x    frame=26009 fps=424 q=-0.0 size=N/A time=00:18:04.79 bitrate=N/A speed=17.7x    frame=26248 fps=424 q=-0.0 size=N/A time=00:18:14.76 bitrate=N/A speed=17.7x    frame=26465 fps=424 q=-0.0 size=N/A time=00:18:23.81 bitrate=N/A speed=17.7x    frame=26690 fps=424 q=-0.0 size=N/A time=00:18:33.19 bitrate=N/A speed=17.7x    frame=26918 fps=424 q=-0.0 size=N/A time=00:18:42.70 bitrate=N/A speed=17.7x    frame=27146 fps=424 q=-0.0 size=N/A time=00:18:52.21 bitrate=N/A speed=17.7x    frame=27370 fps=425 q=-0.0 size=N/A time=00:19:01.55 bitrate=N/A speed=17.7x    frame=27608 fps=425 q=-0.0 size=N/A time=00:19:11.48 bitrate=N/A speed=17.7x    frame=27838 fps=425 q=-0.0 size=N/A time=00:19:21.07 bitrate=N/A speed=17.7x    frame=28081 fps=425 q=-0.0 size=N/A time=00:19:31.21 bitrate=N/A speed=17.7x    frame=28326 fps=426 q=-0.0 size=N/A time=00:19:41.43 bitrate=N/A speed=17.8x    frame=28565 fps=426 q=-0.0 size=N/A time=00:19:51.39 bitrate=N/A speed=17.8x    frame=28790 fps=426 q=-0.0 size=N/A time=00:20:00.78 bitrate=N/A speed=17.8x    frame=29029 fps=426 q=-0.0 size=N/A time=00:20:10.75 bitrate=N/A speed=17.8x    frame=29234 fps=426 q=-0.0 size=N/A time=00:20:19.30 bitrate=N/A speed=17.8x    frame=29451 fps=426 q=-0.0 size=N/A time=00:20:28.35 bitrate=N/A speed=17.8x    frame=29690 fps=426 q=-0.0 size=N/A time=00:20:38.32 bitrate=N/A speed=17.8x    frame=29933 fps=427 q=-0.0 size=N/A time=00:20:48.45 bitrate=N/A speed=17.8x    frame=30176 fps=427 q=-0.0 size=N/A time=00:20:58.59 bitrate=N/A speed=17.8x    frame=30415 fps=427 q=-0.0 size=N/A time=00:21:08.55 bitrate=N/A speed=17.8x    frame=30650 fps=428 q=-0.0 size=N/A time=00:21:18.36 bitrate=N/A speed=17.8x    frame=30882 fps=428 q=-0.0 size=N/A time=00:21:28.03 bitrate=N/A speed=17.8x    frame=31104 fps=428 q=-0.0 size=N/A time=00:21:37.29 bitrate=N/A speed=17.8x    frame=31325 fps=428 q=-0.0 size=N/A time=00:21:46.51 bitrate=N/A speed=17.8x    frame=31559 fps=428 q=-0.0 size=N/A time=00:21:56.27 bitrate=N/A speed=17.9x    frame=31803 fps=428 q=-0.0 size=N/A time=00:22:06.45 bitrate=N/A speed=17.9x    frame=32045 fps=429 q=-0.0 size=N/A time=00:22:16.54 bitrate=N/A speed=17.9x    frame=32284 fps=429 q=-0.0 size=N/A time=00:22:26.51 bitrate=N/A speed=17.9x    frame=32509 fps=429 q=-0.0 size=N/A time=00:22:35.89 bitrate=N/A speed=17.9x    frame=32736 fps=429 q=-0.0 size=N/A time=00:22:45.36 bitrate=N/A speed=17.9x    frame=32971 fps=429 q=-0.0 size=N/A time=00:22:55.16 bitrate=N/A speed=17.9x    frame=33173 fps=429 q=-0.0 size=N/A time=00:23:03.59 bitrate=N/A speed=17.9x    frame=33377 fps=429 q=-0.0 size=N/A time=00:23:12.09 bitrate=N/A speed=17.9x    frame=33598 fps=429 q=-0.0 size=N/A time=00:23:21.31 bitrate=N/A speed=17.9x    frame=33840 fps=429 q=-0.0 size=N/A time=00:23:31.41 bitrate=N/A speed=17.9x    frame=34089 fps=429 q=-0.0 size=N/A time=00:23:41.79 bitrate=N/A speed=17.9x    frame=34322 fps=429 q=-0.0 size=N/A time=00:23:51.51 bitrate=N/A speed=17.9x    frame=34529 fps=429 q=-0.0 size=N/A time=00:24:00.14 bitrate=N/A speed=17.9x    frame=34745 fps=429 q=-0.0 size=N/A time=00:24:09.15 bitrate=N/A speed=17.9x    frame=35001 fps=430 q=-0.0 size=N/A time=00:24:19.83 bitrate=N/A speed=17.9x    [Parsed_psnr_10 @ 000001cc7bf819c0] PSNR y:49.004505 u:51.418810 v:51.530090 average:49.682655 min:37.687346 max:inf
[out#0/null @ 000001cc7a3df040] video:15058KiB audio:274072KiB subtitle:0KiB other streams:0KiB global headers:0KiB muxing overhead: unknown
frame=35045 fps=430 q=-0.0 Lsize=N/A time=00:24:21.66 bitrate=N/A speed=17.9x    
